<svg xmlns="http://www.w3.org/2000/svg" xmlns:xlink="http://www.w3.org/1999/xlink" viewBox="0,0,256,256" width="24px" height="24px" fill-rule="nonzero"><g fill="#ffffff" fill-rule="nonzero" stroke="none" stroke-width="1" stroke-linecap="butt" stroke-linejoin="miter" stroke-miterlimit="10" stroke-dasharray="" stroke-dashoffset="0" font-family="none" font-weight="none" font-size="none" text-anchor="none" style="mix-blend-mode: normal"><g transform="scale(8,8)"><path d="M5,31c-0.34,0 -0.13,0.05 -4.45,-2.11c-0.28695,-0.14386 -0.4874,-0.41672 -0.53889,-0.73356c-0.05149,-0.31684 0.05225,-0.63913 0.27889,-0.86644l4,-4c0.18777,-0.18931 0.44336,-0.2958 0.71,-0.2958c0.26664,0 0.52223,0.10649 0.71,0.2958l3,3c0.18931,0.18777 0.2958,0.44336 0.2958,0.71c0,0.26664 -0.10649,0.52223 -0.2958,0.71l-3,3c-0.18872,0.18719 -0.4442,0.29154 -0.71,0.29zM2.69,27.73l2.11,1.05l1.79,-1.78l-1.59,-1.59z"></path><path d="M31.71,5.29l-5,-5c-0.23459,-0.24464 -0.57712,-0.3538 -0.91,-0.29c-5.15,1 -5.13,1 -5.42,1.2c-0.29,0.2 -1.93,1.67 -12,10.41c-0.397,0.36646 -0.43113,0.982 -0.07708,1.39011c0.35405,0.40811 0.96825,0.46119 1.38708,0.11989l11.31,-9.75l7.68,7.68l-11.68,13.48c-11.15,-11.09 -10.34,-10.35 -10.68,-10.47c-0.34367,-0.13566 -0.73494,-0.0574 -1,0.2c-0.39,0.37 -0.22,-0.26 -1.32,9.63c-0.03608,0.30168 0.06694,0.6034 0.28,0.82l3,3c0.2166,0.21306 0.51832,0.31608 0.82,0.28c9.84,-1.09 9.25,-0.94 9.6,-1.3c0.35,-0.36 12.93,-14.89 13.08,-15.07c0.15,-0.18 0.15,-0.19 1.2,-5.42c0.06887,-0.32944 -0.0326,-0.67143 -0.27,-0.91zM8.37,26l-2.32,-2.37l0.71,-6.45l8.06,8.06zM23,2.61l2.64,-0.52l4.24,4.24l-0.49,2.67z"></path><path d="M17,16c-0.40627,0.00236 -0.77358,-0.2413 -0.92937,-0.61652c-0.15579,-0.37521 -0.06909,-0.80739 0.21937,-1.09348l4.32,-4.29c0.39715,-0.27176 0.93154,-0.2221 1.27182,0.11818c0.34028,0.34028 0.38994,0.87467 0.11818,1.27182l-4.31,4.32c-0.18379,0.18234 -0.43113,0.2863 -0.69,0.29z"></path></g></g></svg>